<svg xmlns="http://www.w3.org/2000/svg" class="animated" height="355" width="768" xmlns:xlink="http://www.w3.org/1999/xlink" xmlns:svgjs="http://svgjs.com/svgjs" viewBox="0 0 500 500"><style>svg:not(.animated) .animable{opacity:0}body{background:#fff}.animated #Floor--inject-102{animation:3.9s Infinite linear heartbeat;animation-delay:0s}.animated #Photos--inject-102{animation:1.3s 1 forwards cubic-bezier(0.36,-0.01,0.5,1.38) lightSpeedLeft;animation-delay:0s}.animated #Window--inject-102{animation:1s 1 forwards cubic-bezier(0.36,-0.01,0.5,1.38) lightSpeedLeft;animation-delay:0s}.animated #Icons--inject-102{animation:1s 1 forwards cubic-bezier(0.36,-0.01,0.5,1.38) slideRight;animation-delay:0s}.animated #Character--inject-102{animation:1.5s 1 forwards cubic-bezier(0.36,-0.01,0.5,1.38) fadeIn;animation-delay:0s}@keyframes heartbeat{0%{transform:scale(1)}10%{transform:scale(1.1)}30%{transform:scale(1)}40%{transform:scale(1)}50%{transform:scale(1.1)}60%{transform:scale(1)}100%{transform:scale(1)}}@keyframes lightSpeedLeft{from{transform:translate3d(-50%,0,0) skewX(20deg);opacity:0}60%{transform:skewX(-10deg);opacity:1}80%{transform:skewX(2deg)}to{opacity:1;transform:translate3d(0,0,0)}}@keyframes slideRight{0%{opacity:0;transform:translateX(30px)}100%{opacity:1;transform:translateX(0)}}@keyframes fadeIn{0%{opacity:0}100%{opacity:1}}</style><g id="Floor--inject-102" style="transform-origin:250.05px 346.02px" class="animable"><ellipse id="floor--inject-102" style="transform-origin:250.05px 346.02px" rx="227.88" ry="125.27" class="animable" cy="346.02" cx="250.05" fill="#f5f5f5"/></g><g id="Shadows--inject-102" style="transform-origin:202.599px 347.831px" fill="#e0e0e0" class="animable"><ellipse id="Shadow--inject-102" style="transform-origin:292.78px 410.1px" rx="72.58" ry="41.9" class="animable" cy="410.1" cx="292.78"/><path id="shadow--inject-102" class="animable" style="transform-origin:268.065px 303.358px" d="m234.13 359.32L365 283.74c1.55-.89 1.55-2.34.0-3.23l-57.4-33.14a6.14 6.14.0 0 0-5.6.0L171.13 323c-1.55.89-1.55 2.34.0 3.23l57.41 33.14a6.12 6.12.0 0 0 5.59-.05z"/><path id="shadow--inject-102" class="animable" style="transform-origin:152.904px 309.405px" d="m123.85 374.48-83.66-48.3c-1.54-.89-1.54-2.34.0-3.23l136.16-78.62a6.21 6.21.0 0 1 5.6.0l83.66 48.3c1.55.9 1.55 2.34.0 3.24l-136.16 78.61a6.21 6.21.0 0 1-5.6.0z"/></g><g id="Photos--inject-102" style="transform-origin:148.04px 203.165px" class="animable"><g id="photos--inject-102" style="transform-origin:148.04px 261.72px" class="animable"><path id="elajweqsrylyi" class="animable" style="transform-origin:148.04px 301.565px" fill="#37474f" d="m167.92 236.93-125.69 72.58a3.6 3.6.0 0 0-1.64 2.83v3.31a3.6 3.6.0 0 0 1.64 2.83l82.64 47.72a3.62 3.62.0 0 0 3.27.0l125.72-72.59a3.62 3.62.0 0 0 1.63-2.83v-3.31a3.6 3.6.0 0 0-1.64-2.83l-82.66-47.71a3.62 3.62.0 0 0-3.27.0z"/><path id="ele6h5ysfjmkm" class="animable" style="transform-origin:148.033px 298.02px" fill="#455a64" d="m124.87 359.11-82.64-47.71a1 1 0 0 1 0-1.89l125.69-72.58a3.62 3.62.0 0 1 3.27.0l82.66 47.71a1 1 0 0 1 0 1.88l-125.71 72.59a3.62 3.62.0 0 1-3.27.0z"/><path id="elob81fvyqeah" class="animable" style="transform-origin:83.6px 338.152px" fill="#263238" d="m126.61 359.5v7.08a3.39 3.39.0 0 1-1.73-.37l-82.66-47.73a3.61 3.61.0 0 1-1.63-2.82v-3.31a3.67 3.67.0 0 1 1.33-2.63c-.58.53-.48 1.22.3 1.67l82.66 47.72a3.4 3.4.0 0 0 1.73.39z"/><path id="elxywjzysajk" style="transform-origin:238.5px 246.445px" d="M234.11 291.5 230.67 293.5 242.88 201.38 246.33 199.39z" fill="#e0e0e0" class="animable"/><path id="eldobmhz3i8mk" style="transform-origin:199.94px 226.185px" d="M230.67 293.5 157 250.98 169.21 158.87 242.88 201.38z" fill="#fafafa" class="animable"/><path id="elmcxk7tinn4" style="transform-origin:207.77px 179.115px" d="M246.33 199.39 242.88 201.38 169.21 158.87 172.71 156.85z" fill="#ebebeb" class="animable"/><path id="elg9yf7v93tkq" style="transform-origin:199.73px 225.34px" d="M239.03 202.77 171.51 163.8 160.43 247.97 227.95 286.88z" fill="#6892c8" class="animable"/><g id="elv1y9kwk8pbh"><path opacity=".8" style="transform-origin:199.73px 225.34px" d="M239.03 202.77 171.51 163.8 160.43 247.97 227.95 286.88z" class="animable" fill="#fff"/></g><path id="elixd6ekrnl8p" class="animable" style="transform-origin:198.255px 240.828px" fill="#6892c8" d="m167.67 215.55L185 199.13c1.81-1.71 3.95-1.18 4.75 1.18l12.42 36.58a.82.82.0 0 0 1.6-.32l-.54-7.71 11.05-7.78a3.79 3.79.0 0 1 5.73 1.45l13 26-4.62 35-64.89-37.4z"/><path id="elfzwb8msnue7" class="animable" style="transform-origin:225.601px 208.878px" fill="#6892c8" d="m226.42 203c-3-1.76-5.9-.56-6.37 2.67s1.66 7.29 4.74 9.07 5.93.59 6.37-2.66-1.69-7.34-4.74-9.08z"/><path id="elbh7mqf9bdxe" style="transform-origin:167.505px 205.855px" d="M174.57 165.58 163.5 246.13 160.44 247.91 171.51 163.8z" fill="#e0e0e0" class="animable"/><path id="elhmth06wf9j" style="transform-origin:194.415px 266.505px" d="M163.5 246.13 228.39 283.57 227.95 286.88 160.44 247.91z" fill="#ebebeb" class="animable"/><path id="elshnklwwhdp9" style="transform-origin:220.175px 257.06px" d="M215.79 302.12 212.34 304.11 224.56 212 228.01 210.01z" fill="#e0e0e0" class="animable"/><path id="el2uv83b8pxzl" style="transform-origin:181.615px 236.795px" d="M212.34 304.11 138.67 261.59 150.88 169.48 224.56 212z" fill="#fafafa" class="animable"/><path id="el7kaeso6zk6i" style="transform-origin:189.445px 189.73px" d="M228.01 210.01 224.56 212 150.88 169.48 154.38 167.46z" fill="#ebebeb" class="animable"/><path id="elm64fl3vg77" style="transform-origin:181.41px 235.96px" d="M220.71 213.38 153.19 174.42 142.11 258.58 209.63 297.5z" fill="#6892c8" class="animable"/><g id="el5zc29hpq836"><path opacity=".8" style="transform-origin:181.41px 235.96px" d="M220.71 213.38 153.19 174.42 142.11 258.58 209.63 297.5z" class="animable" fill="#fff"/></g><path id="elqxeo0luf4o" class="animable" style="transform-origin:179.925px 251.445px" fill="#6892c8" d="m149.34 226.16 17.32-16.41c1.81-1.72 4-1.19 4.75 1.17l12.42 36.58a.82.82.0 0 0 1.6-.32l-.54-7.71 11.05-7.77a3.8 3.8.0 0 1 5.74 1.45l13 26-4.61 35-64.9-37.43z"/><path id="el8nve04p477d" class="animable" style="transform-origin:207.275px 219.475px" fill="#6892c8" d="m208.09 213.6c-3.05-1.76-5.89-.57-6.36 2.66s1.65 7.3 4.74 9.08 5.93.58 6.36-2.67-1.69-7.31-4.74-9.07z"/><path id="elzcujnj9b8r" style="transform-origin:149.185px 216.47px" d="M156.25 176.19 145.17 256.75 142.12 258.52 153.19 174.42z" fill="#e0e0e0" class="animable"/><path id="el6gxno3srsyq" style="transform-origin:176.09px 277.125px" d="M145.17 256.75 210.06 294.18 209.63 297.5 142.12 258.52z" fill="#ebebeb" class="animable"/><path id="elc3mph5k1ka" style="transform-origin:201.85px 267.675px" d="M197.46 312.74 194.02 314.73 206.23 222.62 209.68 220.62z" fill="#e0e0e0" class="animable"/><path id="ell1suhh3rfhs" style="transform-origin:163.285px 247.415px" d="M194.02 314.73 120.34 272.21 132.56 180.1 206.23 222.62z" fill="#fafafa" class="animable"/><path id="elz8pmr929s9" style="transform-origin:171.12px 200.35px" d="M209.68 220.62 206.23 222.62 132.56 180.1 136.06 178.08z" fill="#ebebeb" class="animable"/><path id="elus9a43mnrm" style="transform-origin:163.08px 246.57px" d="M202.38 224 134.86 185.03 123.78 269.2 191.3 308.11z" fill="#6892c8" class="animable"/><g id="eleuh2ppd4wpk"><path opacity=".8" style="transform-origin:163.08px 246.57px" d="M202.38 224 134.86 185.03 123.78 269.2 191.3 308.11z" class="animable" fill="#fff"/></g><path id="elu1owf4192e" class="animable" style="transform-origin:161.58px 262.058px" fill="#6892c8" d="m131 236.78 17.32-16.42c1.81-1.71 3.94-1.18 4.75 1.18l12.41 36.58a.82.82.0 0 0 1.6-.32l-.54-7.71 11.06-7.78a3.79 3.79.0 0 1 5.73 1.45l13 26-4.61 35-64.89-37.43z"/><path id="elz4a1vxrbw0g" class="animable" style="transform-origin:188.945px 230.088px" fill="#6892c8" d="m189.77 224.21c-3.05-1.76-5.9-.56-6.37 2.67s1.66 7.29 4.74 9.07 5.93.59 6.36-2.66-1.69-7.29-4.73-9.08z"/><path id="el0d60olg4sr9r" style="transform-origin:130.855px 227.085px" d="M137.92 186.81 126.85 267.37 123.79 269.14 134.86 185.03z" fill="#e0e0e0" class="animable"/><path id="elnce33h4wztc" style="transform-origin:157.765px 287.74px" d="M126.85 267.37 191.74 304.8 191.3 308.11 123.79 269.14z" fill="#ebebeb" class="animable"/><path id="elev7khq048od" style="transform-origin:183.52px 278.29px" d="M179.13 323.35 175.69 325.34 187.91 233.23 191.35 231.24z" fill="#e0e0e0" class="animable"/><path id="elc7etf4ount" style="transform-origin:144.965px 258.025px" d="M175.69 325.34 102.02 282.82 114.23 190.71 187.91 233.23z" fill="#fafafa" class="animable"/><path id="elsygekrbcv8b" style="transform-origin:152.79px 210.96px" d="M191.35 231.24 187.91 233.23 114.23 190.71 117.73 188.69z" fill="#ebebeb" class="animable"/><path id="elz3s3s4aonsh" style="transform-origin:144.76px 257.19px" d="M184.06 234.61 116.54 195.65 105.46 279.81 172.98 318.73z" fill="#6892c8" class="animable"/><g id="eli13ac3q8f3"><path opacity=".8" style="transform-origin:144.76px 257.19px" d="M184.06 234.61 116.54 195.65 105.46 279.81 172.98 318.73z" class="animable" fill="#fff"/></g><path id="el81cczpkbrwn" class="animable" style="transform-origin:143.245px 272.697px" fill="#6892c8" d="m112.69 247.39L130 231c1.81-1.71 4-1.19 4.75 1.17l12.42 36.58a.82.82.0 0 0 1.6-.32l-.54-7.71 11-7.77a3.8 3.8.0 0 1 5.74 1.45l13 26-4.62 35-64.83-37.4z"/><path id="elym8rj4n8mys" class="animable" style="transform-origin:170.626px 240.706px" fill="#6892c8" d="m171.44 234.83c-3.05-1.76-5.9-.57-6.36 2.66s1.65 7.3 4.73 9.08 5.94.59 6.37-2.67-1.69-7.31-4.74-9.07z"/><path id="el787ydaypqi3" style="transform-origin:112.525px 237.7px" d="M119.59 197.43 108.52 277.98 105.46 279.75 116.54 195.65z" fill="#e0e0e0" class="animable"/><path id="elbc2hsxdn5f" style="transform-origin:139.435px 298.355px" d="M108.52 277.98 173.41 315.41 172.98 318.73 105.46 279.75z" fill="#ebebeb" class="animable"/><path id="elrwz2xg0tamf" style="transform-origin:165.2px 288.905px" d="M160.81 333.96 157.37 335.96 169.58 243.84 173.03 241.85z" fill="#e0e0e0" class="animable"/><path id="eluebd1x3eea" style="transform-origin:126.635px 268.645px" d="M157.37 335.96 83.69 293.44 95.91 201.33 169.58 243.84z" fill="#fafafa" class="animable"/><path id="elrejp8ibrwq" style="transform-origin:134.47px 221.575px" d="M173.03 241.85 169.58 243.84 95.91 201.33 99.4 199.31z" fill="#ebebeb" class="animable"/><path id="eld3m78c83wpv" style="transform-origin:126.43px 267.8px" d="M165.73 245.23 98.21 206.26 87.13 290.43 154.65 329.34z" fill="#6892c8" class="animable"/><g id="eludmznpumw7d"><path opacity=".8" style="transform-origin:126.43px 267.8px" d="M165.73 245.23 98.21 206.26 87.13 290.43 154.65 329.34z" class="animable" fill="#fff"/></g><path id="elkkfqqijb1cs" class="animable" style="transform-origin:124.95px 283.288px" fill="#6892c8" d="m94.37 258 17.32-16.42c1.81-1.71 3.94-1.18 4.74 1.18l12.42 36.58a.82.82.0 0 0 1.6-.32l-.54-7.71 11.09-7.77a3.8 3.8.0 0 1 5.7 1.46l13 26-4.61 35-64.89-37.4z"/><path id="eltv64bvs57bi" class="animable" style="transform-origin:152.295px 251.32px" fill="#6892c8" d="m153.11 245.44c-3-1.75-5.89-.56-6.36 2.67s1.66 7.29 4.74 9.07 5.93.59 6.36-2.66-1.69-7.32-4.74-9.08z"/><path id="elvxkw3ptqadc" style="transform-origin:94.205px 248.315px" d="M101.27 208.04 90.2 288.6 87.14 290.37 98.21 206.26z" fill="#e0e0e0" class="animable"/><path id="el3tcn05z0vw4" style="transform-origin:121.115px 308.97px" d="M90.2 288.6 155.09 326.03 154.65 329.34 87.14 290.37z" fill="#ebebeb" class="animable"/><path id="elbgufeen6gr" style="transform-origin:146.87px 299.52px" d="M142.48 344.58 139.04 346.57 151.25 254.46 154.7 252.47z" fill="#e0e0e0" class="animable"/><path id="elrrko7v4619n" style="transform-origin:108.31px 279.255px" d="M139.04 346.57 65.37 304.05 77.58 211.94 151.25 254.46z" fill="#fafafa" class="animable"/><path id="elq4p02pess7" style="transform-origin:116.14px 232.19px" d="M154.7 252.47 151.25 254.46 77.58 211.94 81.08 209.92z" fill="#ebebeb" class="animable"/><path id="el3gg4dxu63zd" style="transform-origin:108.1px 278.42px" d="M147.4 255.84 79.89 216.88 68.8 301.04 136.32 339.96z" fill="#6892c8" class="animable"/><g id="elq73kry17mwc"><path opacity=".8" style="transform-origin:108.1px 278.42px" d="M147.4 255.84 79.89 216.88 68.8 301.04 136.32 339.96z" class="animable" fill="#fff"/></g><path id="elj27zp6buhhi" class="animable" style="transform-origin:106.595px 293.927px" fill="#6892c8" d="m76 268.62 17.32-16.41c1.81-1.71 4-1.19 4.75 1.17L110.53 290a.82.82.0 0 0 1.6-.32l-.54-7.71 11-7.77a3.79 3.79.0 0 1 5.73 1.45l13 26-4.62 35-64.83-37.44z"/><path id="elp3a5nyd9kkf" class="animable" style="transform-origin:133.977px 261.936px" fill="#6892c8" d="m134.79 256.06c-3-1.76-5.9-.57-6.36 2.67s1.65 7.29 4.73 9.07 5.93.59 6.37-2.67-1.69-7.31-4.74-9.07z"/><path id="elqfib5oyfnze" style="transform-origin:75.875px 258.935px" d="M82.94 218.66 71.87 299.21 68.81 300.99 79.89 216.88z" fill="#e0e0e0" class="animable"/><path id="el2466qx272ad" style="transform-origin:102.785px 319.585px" d="M71.87 299.21 136.76 336.64 136.32 339.96 68.81 300.99z" fill="#ebebeb" class="animable"/></g><g id="photos--inject-102" style="transform-origin:148.04px 144.995px" class="animable"><path id="el9glx9rqusmj" class="animable" style="transform-origin:148.04px 185.222px" fill="#37474f" d="m167.92 120.58-125.69 72.58a3.6 3.6.0 0 0-1.64 2.84v3.31a3.62 3.62.0 0 0 1.64 2.84l82.64 47.71a3.62 3.62.0 0 0 3.27.0l125.72-72.59a3.62 3.62.0 0 0 1.63-2.83v-3.31a3.6 3.6.0 0 0-1.64-2.83l-82.66-47.71a3.62 3.62.0 0 0-3.27-.01z"/><path id="el4awyb4bxfto" class="animable" style="transform-origin:148.045px 181.674px" fill="#455a64" d="m124.87 242.76-82.64-47.71a1 1 0 0 1 0-1.89l125.69-72.58a3.62 3.62.0 0 1 3.27.0l82.66 47.71c.91.52.91 1.36.0 1.89l-125.71 72.58a3.56 3.56.0 0 1-3.27.0z"/><path id="elubwssa5ve1d" class="animable" style="transform-origin:83.6px 221.806px" fill="#263238" d="m126.61 243.15v7.09a3.5 3.5.0 0 1-1.73-.38l-82.66-47.73a3.61 3.61.0 0 1-1.63-2.82v-3.31a3.67 3.67.0 0 1 1.33-2.63c-.58.53-.48 1.22.3 1.68l82.66 47.71a3.3 3.3.0 0 0 1.73.39z"/><path id="el5laqmooym7i" style="transform-origin:238.5px 129.34px" d="M234.11 174.4 230.67 176.39 242.88 84.28 246.33 82.29z" fill="#e0e0e0" class="animable"/><path id="elv7fysz3r1pd" style="transform-origin:199.94px 109.075px" d="M230.67 176.39 157 133.87 169.21 41.76 242.88 84.28z" fill="#fafafa" class="animable"/><path id="elvh08z7hn85" style="transform-origin:207.77px 62.01px" d="M246.33 82.29 242.88 84.28 169.21 41.76 172.71 39.74z" fill="#ebebeb" class="animable"/><path id="elnbdph7cf8ld" style="transform-origin:199.73px 108.24px" d="M239.03 85.66 171.51 46.7 160.43 130.86 227.95 169.78z" fill="#6892c8" class="animable"/><g id="el3w7c0ku1c6r"><path opacity=".8" style="transform-origin:199.73px 108.24px" d="M239.03 85.66 171.51 46.7 160.43 130.86 227.95 169.78z" class="animable" fill="#fff"/></g><path id="elsjqfykvb5pc" class="animable" style="transform-origin:198.25px 123.715px" fill="#6892c8" d="m167.67 98.44L185 82c1.81-1.72 3.95-1.19 4.75 1.17l12.42 36.58a.82.82.0 0 0 1.6-.32l-.54-7.71 11.04-7.72a3.78 3.78.0 0 1 5.73 1.44l13 26-4.62 35-64.88-37.44z"/><path id="elxtrj9ll1fnk" class="animable" style="transform-origin:225.601px 91.7553px" fill="#6892c8" d="m226.42 85.88c-3-1.76-5.9-.57-6.37 2.66s1.66 7.3 4.74 9.08 5.93.58 6.37-2.67-1.69-7.31-4.74-9.07z"/><path id="elytb8k7lvek" style="transform-origin:167.505px 88.75px" d="M174.57 48.47 163.5 129.03 160.44 130.8 171.51 46.7z" fill="#e0e0e0" class="animable"/><path id="elmpcnathhbrb" style="transform-origin:194.415px 149.405px" d="M163.5 129.03 228.39 166.46 227.95 169.78 160.44 130.8z" fill="#ebebeb" class="animable"/><path id="elfw3kp6szwyb" style="transform-origin:220.175px 139.95px" d="M215.79 185.01 212.34 187 224.56 94.89 228.01 92.9z" fill="#e0e0e0" class="animable"/><path id="elg22vblpsgoc" style="transform-origin:181.615px 119.69px" d="M212.34 187 138.67 144.49 150.88 52.38l73.68 42.51z" fill="#fafafa" class="animable"/><path id="elhn8ynrifbn" style="transform-origin:189.445px 72.625px" d="M228.01 92.9 224.56 94.89 150.88 52.38 154.38 50.36z" fill="#ebebeb" class="animable"/><path id="elguqjz9uz3e" style="transform-origin:181.41px 118.85px" d="M220.71 96.28 153.19 57.31 142.11 141.47 209.63 180.39z" fill="#6892c8" class="animable"/><g id="elyeljw5ridif"><path opacity=".8" style="transform-origin:181.41px 118.85px" d="M220.71 96.28 153.19 57.31 142.11 141.47 209.63 180.39z" class="animable" fill="#fff"/></g><path id="elq8ish9u42z" class="animable" style="transform-origin:179.925px 134.338px" fill="#6892c8" d="m149.34 109.05 17.32-16.41c1.81-1.71 4-1.18 4.75 1.18l12.42 36.58a.82.82.0 0 0 1.6-.33l-.54-7.7 11.05-7.78a3.8 3.8.0 0 1 5.74 1.45l13 26-4.61 35-64.9-37.43z"/><path id="elafhduuy4xln" class="animable" style="transform-origin:207.275px 102.368px" fill="#6892c8" d="m208.09 96.49c-3.05-1.76-5.89-.56-6.36 2.67s1.65 7.29 4.74 9.07 5.93.59 6.36-2.66-1.69-7.32-4.74-9.08z"/><path id="elc7h0bhzk4q4" style="transform-origin:149.185px 99.365px" d="M156.25 59.09 145.17 139.64 142.12 141.42 153.19 57.31z" fill="#e0e0e0" class="animable"/><path id="el7inzo8ju2mr" style="transform-origin:176.09px 160.015px" d="M145.17 139.64 210.06 177.07 209.63 180.39 142.12 141.42z" fill="#ebebeb" class="animable"/><path id="elc9h6ylyjedo" style="transform-origin:201.85px 150.57px" d="M197.46 195.63 194.02 197.62 206.23 105.51 209.68 103.52z" fill="#e0e0e0" class="animable"/><path id="elar53xkgvs6d" style="transform-origin:163.285px 130.305px" d="M194.02 197.62 120.34 155.1 132.56 62.99 206.23 105.51z" fill="#fafafa" class="animable"/><path id="elf8upkf2sm2b" style="transform-origin:171.12px 83.24px" d="M209.68 103.52 206.23 105.51 132.56 62.99 136.06 60.97z" fill="#ebebeb" class="animable"/><path id="elxmp4h1ho1og" style="transform-origin:163.08px 129.46px" d="M202.38 106.89 134.86 67.92 123.78 152.09 191.3 191z" fill="#6892c8" class="animable"/><g id="eldf2kovzumy"><path opacity=".8" style="transform-origin:163.08px 129.46px" d="M202.38 106.89 134.86 67.92 123.78 152.09 191.3 191z" class="animable" fill="#fff"/></g><path id="elym7qa623uks" class="animable" style="transform-origin:161.6px 144.945px" fill="#6892c8" d="m131 119.67 17.32-16.41c1.81-1.72 3.94-1.19 4.75 1.17L165.5 141a.82.82.0 0 0 1.6-.32l-.54-7.71 11.06-7.77a3.78 3.78.0 0 1 5.73 1.44l13 26-4.61 35-64.89-37.43z"/><path id="elt7nu4htn45h" class="animable" style="transform-origin:188.945px 112.985px" fill="#6892c8" d="m189.77 107.11c-3.05-1.76-5.9-.57-6.37 2.66s1.66 7.3 4.74 9.08 5.93.58 6.36-2.67-1.69-7.31-4.73-9.07z"/><path id="el6h3gqpg3kng" style="transform-origin:130.855px 109.975px" d="M137.92 69.7 126.85 150.26 123.79 152.03 134.86 67.92z" fill="#e0e0e0" class="animable"/><path id="elcr0owo9c1jd" style="transform-origin:157.765px 170.63px" d="M126.85 150.26 191.74 187.69 191.3 191l-67.51-38.97z" fill="#ebebeb" class="animable"/><path id="eluqmzjh8mwym" style="transform-origin:183.52px 161.18px" d="M179.13 206.24 175.69 208.23 187.91 116.12 191.35 114.13z" fill="#e0e0e0" class="animable"/><path id="elke3nvckkn0l" style="transform-origin:144.965px 140.92px" d="M175.69 208.23 102.02 165.72 114.23 73.61 187.91 116.12z" fill="#fafafa" class="animable"/><path id="el4pzbjrmhjnb" style="transform-origin:152.79px 93.855px" d="M191.35 114.13 187.91 116.12 114.23 73.61 117.73 71.59z" fill="#ebebeb" class="animable"/><path id="elbyw2faa7gm8" style="transform-origin:144.76px 140.08px" d="M184.06 117.5 116.54 78.54 105.46 162.7 172.98 201.62z" fill="#6892c8" class="animable"/><g id="el6xn1k6f3gkv"><path opacity=".8" style="transform-origin:144.76px 140.08px" d="M184.06 117.5 116.54 78.54 105.46 162.7 172.98 201.62z" class="animable" fill="#fff"/></g><path id="elc3ln64bbxt" class="animable" style="transform-origin:143.215px 155.568px" fill="#6892c8" d="m112.69 130.28L130 113.87c1.81-1.71 4-1.18 4.75 1.18l12.42 36.58a.82.82.0 0 0 1.6-.32l-.54-7.71 11-7.78a3.8 3.8.0 0 1 5.74 1.45l13 26-4.62 35-64.89-37.44z"/><path id="elotsfn9z7lmi" class="animable" style="transform-origin:170.626px 123.598px" fill="#6892c8" d="m171.44 117.72c-3.05-1.76-5.9-.56-6.36 2.67s1.65 7.29 4.73 9.07 5.94.59 6.37-2.66-1.69-7.32-4.74-9.08z"/><path id="elyc68yq4ndh" style="transform-origin:112.525px 120.595px" d="M119.59 80.32 108.52 160.87 105.46 162.65 116.54 78.54z" fill="#e0e0e0" class="animable"/><path id="el26mmzqlw160j" style="transform-origin:139.435px 181.245px" d="M108.52 160.87l64.89 37.44L172.98 201.62l-67.52-38.97z" fill="#ebebeb" class="animable"/><path id="elaf86f33q22" style="transform-origin:165.2px 171.8px" d="M160.81 216.86 157.37 218.85 169.58 126.74 173.03 124.75z" fill="#e0e0e0" class="animable"/><path id="elsuee5y2j7fj" style="transform-origin:126.635px 151.535px" d="M157.37 218.85 83.69 176.33 95.91 84.22 169.58 126.74z" fill="#fafafa" class="animable"/><path id="elbxf49e0z2xv" style="transform-origin:134.47px 104.47px" d="M173.03 124.75 169.58 126.74 95.91 84.22 99.4 82.2z" fill="#ebebeb" class="animable"/><path id="elt2yq1nbm0te" style="transform-origin:126.43px 150.7px" d="M165.73 128.12 98.21 89.16 87.13 173.32 154.65 212.24z" fill="#6892c8" class="animable"/><g id="eljnvnjhc02wb"><path opacity=".8" style="transform-origin:126.43px 150.7px" d="M165.73 128.12 98.21 89.16 87.13 173.32 154.65 212.24z" class="animable" fill="#fff"/></g><path id="ell09beokuxd" class="animable" style="transform-origin:124.97px 166.18px" fill="#6892c8" d="m94.37 140.9 17.32-16.41c1.81-1.72 3.94-1.19 4.74 1.17l12.42 36.58a.82.82.0 0 0 1.6-.32l-.54-7.71 11.09-7.77a3.79 3.79.0 0 1 5.74 1.44l13 26-4.61 35-64.93-37.39z"/><path id="elt13e08wnbqk" class="animable" style="transform-origin:152.295px 134.215px" fill="#6892c8" d="m153.11 128.34c-3-1.76-5.89-.57-6.36 2.66s1.66 7.3 4.74 9.08 5.93.58 6.36-2.67-1.69-7.31-4.74-9.07z"/><path id="elwriigx6nmkl" style="transform-origin:94.205px 131.21px" d="M101.27 90.93 90.2 171.49 87.14 173.26 98.21 89.16z" fill="#e0e0e0" class="animable"/><path id="ellrr0z7ci8b" style="transform-origin:121.115px 191.865px" d="M90.2 171.49 155.09 208.92 154.65 212.24 87.14 173.26z" fill="#ebebeb" class="animable"/><path id="el34q2umt73g2" style="transform-origin:146.87px 182.41px" d="M142.48 227.47 139.04 229.46 151.25 137.35 154.7 135.36z" fill="#e0e0e0" class="animable"/><path id="elvfmee0fnued" style="transform-origin:108.31px 162.15px" d="M139.04 229.46 65.37 186.95 77.58 94.84 151.25 137.35z" fill="#fafafa" class="animable"/><path id="elzeojvluswv" style="transform-origin:116.14px 115.085px" d="M154.7 135.36 151.25 137.35 77.58 94.84 81.08 92.82z" fill="#ebebeb" class="animable"/><path id="el3bqj9hp0jnx" style="transform-origin:108.1px 161.31px" d="M147.4 138.74 79.89 99.77 68.8 183.93 136.32 222.85z" fill="#6892c8" class="animable"/><g id="elbj7l2nyi2i"><path opacity=".8" style="transform-origin:108.1px 161.31px" d="M147.4 138.74 79.89 99.77 68.8 183.93 136.32 222.85z" class="animable" fill="#fff"/></g><path id="elvge2rnxhzk" class="animable" style="transform-origin:106.595px 176.798px" fill="#6892c8" d="m76 151.52 17.36-16.42c1.81-1.71 4-1.18 4.75 1.18l12.42 36.58a.82.82.0 0 0 1.6-.32l-.54-7.71 11-7.78a3.79 3.79.0 0 1 5.73 1.45l13 26-4.62 35-64.83-37.4z"/><path id="elgtprsck522" class="animable" style="transform-origin:133.977px 144.878px" fill="#6892c8" d="m134.79 139c-3-1.76-5.9-.56-6.36 2.67s1.65 7.29 4.73 9.07 5.93.59 6.37-2.66-1.69-7.37-4.74-9.08z"/><path id="elfq8fmxcrg3h" style="transform-origin:75.875px 141.825px" d="M82.94 101.55 71.87 182.1 68.81 183.88 79.89 99.77z" fill="#e0e0e0" class="animable"/><path id="eljf0vp4z1qns" style="transform-origin:102.785px 202.475px" d="M71.87 182.1 136.76 219.53 136.32 222.85 68.81 183.88z" fill="#ebebeb" class="animable"/></g></g><g id="Window--inject-102" style="transform-origin:294.125px 195.542px" class="animable"><g id="window--inject-102" style="transform-origin:294.125px 195.542px" class="animable"><path id="el3hgslfxt6sw" class="animable" style="transform-origin:297.115px 197.231px" fill="#455a64" d="m366.2 45.32v224.29a10.29 10.29.0 0 1-4.66 8.07l-128.85 74.32a2.89 2.89.0 0 1-1.54.44 3.07 3.07.0 0 1-.6-.07 1.9 1.9.0 0 1-.4-.14l-.24-.14-.28-.18a2.85 2.85.0 0 1-.26-.23 3.77 3.77.0 0 1-.85-1.22 5.79 5.79.0 0 1-.49-2.36v-223.1a10.3 10.3.0 0 1 4.66-8.07l128.85-74.3a3.38 3.38.0 0 1 3.13-.39 1.6 1.6.0 0 1 .4.23 1.47 1.47.0 0 1 .31.3 1.15 1.15.0 0 1 .14.17.87.87.0 0 1 .15.24 2.3 2.3.0 0 1 .27.6 1.3 1.3.0 0 1 .11.41.1.1.0 0 1 0 .09 2 2 0 0 1 .07.43 5.63 5.63.0 0 1 .08.61z"/><path id="eltlh12z8ffp" class="animable" style="transform-origin:293.36px 89.4217px" fill="#6892c8" d="m364.67 42.24a3.38 3.38.0 0 0-3.13.39l-128.85 74.27a10.3 10.3.0 0 0-4.69 8.1v15.2l-5.95-3.49v-15.12a10.27 10.27.0 0 1 4.65-8l128.89-74.32a3.27 3.27.0 0 1 3.41-.27c.81.5 4.68 2.72 5.67 3.24z"/><path id="ela1f0ejy7k08" class="animable" style="transform-origin:297.095px 91.1018px" fill="#6892c8" d="m366.19 45.29c0-2.94-2.09-4.13-4.65-2.65l-128.85 74.26a10.32 10.32.0 0 0-4.69 8.1v15.2l138.19-79.62z"/><g id="eltjhlzk7gzm"><g opacity=".4" style="transform-origin:294.095px 79.5017px" class="animable"><path id="elpp1nsl9evyt" class="animable" style="transform-origin:294.095px 79.5017px" fill="#fff" d="m361.54 42.64-128.85 74.26a9.69 9.69.0 0 0-3.28 3.46l-5.91-3.43a9.32 9.32.0 0 1 3.24-3.4l128.85-74.26a3.27 3.27.0 0 1 3.41-.27c.84.51 4.71 2.71 5.69 3.24a3.35 3.35.0 0 0-3.15.4z"/></g></g><g id="el5rslssomk5x"><path opacity=".15" style="transform-origin:225.745px 128.565px" d="m222.07 136.73v-15.14a9.55 9.55.0 0 1 1.42-4.66l5.93 3.41a9.37 9.37.0 0 0-1.42 4.66v15.2z" class="animable"/></g><path id="elm0s9u7t9im" class="animable" style="transform-origin:338.14px 66.685px" fill="#455a64" d="m338.14 62.63c-1.45.84-2.63 3.34-2.63 5.57s1.18 3.38 2.63 2.54 2.63-3.34 2.63-5.57-1.18-3.38-2.63-2.54z"/><path id="elkl6jmyim2rd" class="animable" style="transform-origin:347.61px 61.205px" fill="#455a64" d="m347.61 57.15c-1.45.84-2.63 3.34-2.63 5.57s1.18 3.38 2.63 2.54 2.63-3.34 2.63-5.57-1.17-3.38-2.63-2.54z"/><path id="eljj5qqbwxzr8" class="animable" style="transform-origin:357.09px 55.727px" fill="#455a64" d="m357.09 51.67c-1.46.84-2.63 3.34-2.63 5.57s1.17 3.38 2.63 2.54 2.63-3.34 2.63-5.57-1.18-3.37-2.63-2.54z"/><path id="el7041yabbn1v" class="animable" style="transform-origin:225.925px 244.375px" fill="#37474f" d="m229.74 352c-.17-.11-.37-.22-.58-.34-.43-.26-.92-.54-1.44-.81l-.78-.44h-.06c-.43-.24-.84-.49-1.23-.7l-1-.58a6.19 6.19.0 0 0-.58-.32 2.73 2.73.0 0 1-.8-.65 3.49 3.49.0 0 1-.62-.94 5.75 5.75.0 0 1-.54-2.47v-208l5.89 3.45v207.92a6.75 6.75.0 0 0 .49 2.36 3.77 3.77.0 0 0 .85 1.22.83.83.0 0 0 .26.23.38.38.0 0 0 .14.07z"/><path id="elt6p9xk5xjr8" class="animable" style="transform-origin:241.569px 151.483px" fill="#6892c8" d="m239.47 152.85a1.85 1.85.0 0 1 .24-.87l3.35-6.93a.49.49.0 0 1 .15-.2s.07-.06.09-.06a.19.19.0 0 1 .26.0.46.46.0 0 1 .11.34v2.32a2.81 2.81.0 0 1-.07.72 2.71 2.71.0 0 1-.24.64l-1.76 3.66 1.76 1.62a.82.82.0 0 1 .24.36 2 2 0 0 1 .07.64v2.33a1.15 1.15.0 0 1-.11.47.73.73.0 0 1-.26.32h-.09a.17.17.0 0 1-.15.0l-3.35-3.07a.67.67.0 0 1-.24-.59z"/><path id="el8cqe56ub6h9" class="animable" style="transform-origin:250.065px 147.025px" fill="#6892c8" d="m251.72 135.47a3.37 3.37.0 0 1 .26-.68 1.15 1.15.0 0 1 .49-.53l1.26-.73a.2.2.0 0 1 .26.0.48.48.0 0 1 .11.34 1.38 1.38.0 0 1 0 .26l-5.75 24.47a2.9 2.9.0 0 1-.23.66 1.32 1.32.0 0 1-.51.56l-1.21.7a.2.2.0 0 1-.26.0.44.44.0 0 1-.11-.34 1.38 1.38.0 0 1 0-.26z"/><path id="el2oh175iiaw8" class="animable" style="transform-origin:258.499px 143.742px" fill="#6892c8" d="m260.61 142.38a1.85 1.85.0 0 1-.24.87l-3.37 6.93a.6.6.0 0 1-.15.2c-.05.0-.07.06-.09.06a.2.2.0 0 1-.26.0.51.51.0 0 1-.11-.35v-2.32a2.81 2.81.0 0 1 .07-.72 2.71 2.71.0 0 1 .24-.64l1.76-3.66-1.76-1.62a.82.82.0 0 1-.24-.36 2 2 0 0 1-.07-.64v-2.33a1.15 1.15.0 0 1 .11-.47.73.73.0 0 1 .26-.32h.09a.21.21.0 0 1 .15.0l3.35 3.07a.67.67.0 0 1 .24.59z"/><path id="elsuy6fvju8cf" class="animable" style="transform-origin:269.129px 143.207px" fill="#6892c8" d="m269.92 140.77a.25.25.0 0 1 .32.0.57.57.0 0 1 .14.42v2.56a1.34 1.34.0 0 1-.14.58.86.86.0 0 1-.32.39l-1.58.92a.25.25.0 0 1-.33.0.53.53.0 0 1-.13-.41v-2.57a1.31 1.31.0 0 1 .13-.57.85.85.0 0 1 .33-.4z"/><path id="elkm2n63wkp" class="animable" style="transform-origin:274.41px 140.155px" fill="#6892c8" d="m275.2 137.72a.24.24.0 0 1 .32.0.53.53.0 0 1 .14.42v2.56a1.21 1.21.0 0 1-.14.58.81.81.0 0 1-.32.39l-1.58.92a.24.24.0 0 1-.32.0.54.54.0 0 1-.14-.42v-2.57a1.33 1.33.0 0 1 .14-.57.84.84.0 0 1 .32-.4z"/><path id="eloq5fy3i1vp" class="animable" style="transform-origin:279.694px 137.104px" fill="#6892c8" d="m280.48 134.67a.25.25.0 0 1 .33.0.57.57.0 0 1 .13.42v2.56a1.33 1.33.0 0 1-.13.58.82.82.0 0 1-.33.39l-1.58.92a.24.24.0 0 1-.32.0.54.54.0 0 1-.13-.42v-2.56a1.31 1.31.0 0 1 .13-.57.84.84.0 0 1 .32-.4z"/><path id="elsebrcs6hfys" class="animable" style="transform-origin:279.595px 150.989px" fill="#6892c8" d="m240.88 171.54 77.42-44.69c.91-.53 1.66-.16 1.66.83a3.57 3.57.0 0 1-1.66 2.75l-77.42 44.7c-.91.53-1.65.15-1.65-.84a3.56 3.56.0 0 1 1.65-2.75z"/><path id="elvifnc8wz52" class="animable" style="transform-origin:304.435px 179.67px" fill="#fff" d="m265.72 200.23 77.42-44.7c.91-.53 1.66-.15 1.66.84a3.54 3.54.0 0 1-1.66 2.74l-77.42 44.7c-.91.53-1.65.15-1.65-.84a3.53 3.53.0 0 1 1.65-2.74z"/><path id="elx9hwwzyr55" class="animable" style="transform-origin:284.25px 220.011px" fill="#e0e0e0" d="m265.72 228.91 37.06-21.38c.91-.53 1.65-.15 1.65.84a3.56 3.56.0 0 1-1.65 2.75l-37.06 21.37c-.91.53-1.65.16-1.65-.83a3.56 3.56.0 0 1 1.65-2.75z"/><path id="elieudf0r53to" class="animable" style="transform-origin:340.135px 116px" fill="#6892c8" d="m324.72 123.14 30.84-17.87c.91-.53 1.65-.15 1.65.84a3.53 3.53.0 0 1-1.65 2.74l-30.84 17.88c-.92.53-1.66.15-1.66-.84a3.55 3.55.0 0 1 1.66-2.75z"/><path id="eliaupukgfczj" class="animable" style="transform-origin:279.595px 308.725px" fill="#6892c8" d="m240.88 329.28 77.42-44.7c.91-.52 1.66-.15 1.66.84a3.57 3.57.0 0 1-1.66 2.75l-77.42 44.7c-.91.52-1.65.15-1.65-.84a3.56 3.56.0 0 1 1.65-2.75z"/><path id="elf7420jn0d5a" class="animable" style="transform-origin:340.135px 273.725px" fill="#6892c8" d="m324.72 280.88L355.56 263c.91-.53 1.65-.16 1.65.83a3.56 3.56.0 0 1-1.65 2.75l-30.84 17.87c-.92.53-1.66.16-1.66-.83a3.55 3.55.0 0 1 1.66-2.74z"/><path id="elxf9eue50jbl" class="animable" style="transform-origin:340.135px 230.79px" fill="#6892c8" d="m324.72 237.93 30.84-17.87c.91-.53 1.65-.15 1.65.84a3.56 3.56.0 0 1-1.65 2.75l-30.84 17.87c-.92.53-1.66.15-1.66-.84a3.55 3.55.0 0 1 1.66-2.75z"/><path id="eldbnni39kgnf" class="animable" style="transform-origin:340.135px 245.127px" fill="#6892c8" d="m324.72 252.27 30.84-17.87c.91-.53 1.65-.16 1.65.83a3.56 3.56.0 0 1-1.65 2.75l-30.84 17.88c-.92.52-1.66.15-1.66-.84a3.55 3.55.0 0 1 1.66-2.75z"/><path id="elcmghh6vgxwf" class="animable" style="transform-origin:307.08px 249.865px" fill="#6892c8" d="m298.42 253.07 17.32-10c.92-.53 1.66-.15 1.66.84a3.55 3.55.0 0 1-1.66 2.75l-17.32 10c-.92.53-1.66.15-1.66-.84a3.55 3.55.0 0 1 1.66-2.75z"/><path id="elehcmjry4e9s" class="animable" style="transform-origin:263.44px 174.666px" fill="#6892c8" d="m240.88 185.92 45.12-26.09c.91-.53 1.65-.15 1.65.83a3.55 3.55.0 0 1-1.65 2.75l-45.12 26.09c-.91.53-1.65.16-1.65-.83a3.56 3.56.0 0 1 1.65-2.75z"/><g id="elu40ab2axc6p"><path opacity=".6" style="transform-origin:263.44px 174.666px" fill="#fff" d="m240.88 185.92 45.12-26.09c.91-.53 1.65-.15 1.65.83a3.55 3.55.0 0 1-1.65 2.75l-45.12 26.09c-.91.53-1.65.16-1.65-.83a3.56 3.56.0 0 1 1.65-2.75z" class="animable"/></g><path id="el0fpl3seqe9fm" class="animable" style="transform-origin:248.545px 197.617px" fill="#6892c8" d="m240.88 200.23 15.32-8.85c.92-.53 1.66-.16 1.66.83a3.55 3.55.0 0 1-1.66 2.79l-15.32 8.86c-.91.52-1.65.15-1.65-.84a3.56 3.56.0 0 1 1.65-2.79z"/><g id="el6q9pq8f8v9r"><path opacity=".6" style="transform-origin:248.545px 197.617px" fill="#fff" d="m240.88 200.23 15.32-8.85c.92-.53 1.66-.16 1.66.83a3.55 3.55.0 0 1-1.66 2.79l-15.32 8.86c-.91.52-1.65.15-1.65-.84a3.56 3.56.0 0 1 1.65-2.79z" class="animable"/></g><path id="elps26akrj0sp" class="animable" style="transform-origin:248.545px 211.939px" fill="#6892c8" d="m240.88 214.57 15.32-8.85c.92-.53 1.66-.16 1.66.83a3.55 3.55.0 0 1-1.66 2.75l-15.32 8.86c-.91.53-1.65.15-1.65-.84a3.56 3.56.0 0 1 1.65-2.75z"/><g id="eln7wmwzrpd8"><path opacity=".6" style="transform-origin:248.545px 211.939px" fill="#fff" d="m240.88 214.57 15.32-8.85c.92-.53 1.66-.16 1.66.83a3.55 3.55.0 0 1-1.66 2.75l-15.32 8.86c-.91.53-1.65.15-1.65-.84a3.56 3.56.0 0 1 1.65-2.75z" class="animable"/></g><path id="elga5rvt09se6" class="animable" style="transform-origin:248.545px 226.279px" fill="#6892c8" d="m240.88 228.91 15.32-8.85c.92-.53 1.66-.16 1.66.83a3.55 3.55.0 0 1-1.66 2.75l-15.32 8.86c-.91.53-1.65.15-1.65-.84a3.56 3.56.0 0 1 1.65-2.75z"/><g id="elj206teq0f1q"><path opacity=".6" style="transform-origin:248.545px 226.271px" fill="#fff" d="m240.88 228.91 15.32-8.86c.92-.53 1.66-.15 1.66.84a3.55 3.55.0 0 1-1.66 2.75l-15.32 8.85c-.91.53-1.65.16-1.65-.83a3.56 3.56.0 0 1 1.65-2.75z" class="animable"/></g><path id="el5cjrm9vl9ea" class="animable" style="transform-origin:288.3px 203.315px" fill="#6892c8" d="m265.72 214.57 45.16-26.09c.91-.53 1.65-.16 1.65.83a3.56 3.56.0 0 1-1.65 2.75l-45.16 26.09c-.91.53-1.65.16-1.65-.83a3.55 3.55.0 0 1 1.65-2.75z"/><path id="elnszb2voxd3f" class="animable" style="transform-origin:327.11px 180.915px" fill="#6892c8" d="m317.29 184.77 19.64-11.3c.91-.53 1.65-.15 1.65.84a3.56 3.56.0 0 1-1.65 2.75l-19.64 11.3c-.91.53-1.65.15-1.65-.84a3.56 3.56.0 0 1 1.65-2.75z"/><path id="el0ryn6jkg92s" class="animable" style="transform-origin:248.545px 240.629px" fill="#6892c8" d="m240.88 243.25 15.32-8.85c.92-.53 1.66-.16 1.66.83a3.55 3.55.0 0 1-1.66 2.77l-15.32 8.86c-.91.53-1.65.15-1.65-.84a3.56 3.56.0 0 1 1.65-2.77z"/><g id="el3fv3e9mdjn5"><path opacity=".6" style="transform-origin:248.545px 240.629px" fill="#fff" d="m240.88 243.25 15.32-8.85c.92-.53 1.66-.16 1.66.83a3.55 3.55.0 0 1-1.66 2.77l-15.32 8.86c-.91.53-1.65.15-1.65-.84a3.56 3.56.0 0 1 1.65-2.77z" class="animable"/></g><path id="elr8inf8jzvoi" class="animable" style="transform-origin:302.275px 152.267px" fill="#6892c8" d="m292.45 156.12 19.64-11.3c.91-.52 1.66-.15 1.66.84a3.57 3.57.0 0 1-1.66 2.75l-19.64 11.3c-.91.53-1.65.15-1.65-.84a3.56 3.56.0 0 1 1.65-2.75z"/><g id="el8o7scqpqwri"><path opacity=".6" style="transform-origin:302.275px 152.267px" fill="#fff" d="m292.45 156.12 19.64-11.3c.91-.52 1.66-.15 1.66.84a3.57 3.57.0 0 1-1.66 2.75l-19.64 11.3c-.91.53-1.65.15-1.65-.84a3.56 3.56.0 0 1 1.65-2.75z" class="animable"/></g><path id="eljfi0ddswfbe" class="animable" style="transform-origin:306.93px 221.218px" fill="#e0e0e0" d="m284.35 232.47 45.16-26.09c.91-.53 1.65-.15 1.65.84a3.56 3.56.0 0 1-1.65 2.75l-45.16 26.09c-.91.52-1.65.15-1.65-.84a3.56 3.56.0 0 1 1.65-2.75z"/><path id="ell54fs5fcj9r" class="animable" style="transform-origin:332.985px 220.576px" fill="#fff" d="m310.4 231.83 45.16-26.09c.91-.53 1.66-.15 1.66.84a3.54 3.54.0 0 1-1.66 2.74l-45.16 26.09c-.91.53-1.65.16-1.65-.83a3.56 3.56.0 0 1 1.65-2.75z"/><path id="elrx6dv845z3" class="animable" style="transform-origin:345.74px 198.82px" fill="#e0e0e0" d="m335.92 202.68 19.64-11.3c.91-.53 1.65-.16 1.65.83a3.56 3.56.0 0 1-1.65 2.75l-19.64 11.3c-.91.53-1.65.16-1.65-.83a3.55 3.55.0 0 1 1.65-2.75z"/><path id="elqr91lj2y8r" class="animable" style="transform-origin:345.74px 255.619px" fill="#e0e0e0" d="m335.92 259.48 19.64-11.3c.91-.53 1.65-.16 1.65.83a3.56 3.56.0 0 1-1.65 2.75l-19.64 11.3c-.91.53-1.65.15-1.65-.84a3.53 3.53.0 0 1 1.65-2.74z"/><path id="els3u7s7iqxl" class="animable" style="transform-origin:288.3px 174.638px" fill="#6892c8" d="m265.72 185.89 45.16-26.09c.91-.53 1.65-.15 1.65.84a3.56 3.56.0 0 1-1.65 2.75l-45.16 26.09c-.91.52-1.65.15-1.65-.84a3.56 3.56.0 0 1 1.65-2.75z"/><g id="elcxdpaby0q9"><path opacity=".6" style="transform-origin:288.3px 174.638px" fill="#fff" d="m265.72 185.89 45.16-26.09c.91-.53 1.65-.15 1.65.84a3.56 3.56.0 0 1-1.65 2.75l-45.16 26.09c-.91.52-1.65.15-1.65-.84a3.56 3.56.0 0 1 1.65-2.75z" class="animable"/></g><path id="el8qbq6ohqvnu" class="animable" style="transform-origin:327.11px 152.24px" fill="#6892c8" d="m317.29 156.1 19.64-11.3c.91-.53 1.65-.16 1.65.83a3.56 3.56.0 0 1-1.65 2.75l-19.64 11.3c-.91.53-1.65.16-1.65-.83a3.53 3.53.0 0 1 1.65-2.75z"/><g id="el9fo3qgkh88"><path opacity=".6" style="transform-origin:327.11px 152.24px" fill="#fff" d="m317.29 156.1 19.64-11.3c.91-.53 1.65-.16 1.65.83a3.56 3.56.0 0 1-1.65 2.75l-19.64 11.3c-.91.53-1.65.16-1.65-.83a3.53 3.53.0 0 1 1.65-2.75z" class="animable"/></g><g id="elkhe01p6t4or"><path opacity=".6" style="transform-origin:288.3px 203.315px" fill="#fff" d="m265.72 214.57 45.16-26.09c.91-.53 1.65-.16 1.65.83a3.56 3.56.0 0 1-1.65 2.75l-45.16 26.09c-.91.53-1.65.16-1.65-.83a3.55 3.55.0 0 1 1.65-2.75z" class="animable"/></g><g id="el3gzy9sehfi9"><path opacity=".6" style="transform-origin:327.11px 180.915px" fill="#fff" d="m317.29 184.77 19.64-11.3c.91-.53 1.65-.15 1.65.84a3.56 3.56.0 0 1-1.65 2.75l-19.64 11.3c-.91.53-1.65.15-1.65-.84a3.56 3.56.0 0 1 1.65-2.75z" class="animable"/></g></g></g><g id="Icons--inject-102" style="transform-origin:425.398px 176.9px" class="animable"><g id="Java--inject-102" style="transform-origin:425.399px 84.675px" class="animable"><path id="el64vjsdrvf5i" class="animable" style="transform-origin:408.905px 66.5913px" fill="#6892c8" d="m419.89 64-10.77 6.17-10.83-1a.76.76.0 0 0-.37.06c.87-.51 10.31-5.91 10.7-6.12a.68.68.0 0 1 .45-.09z"/><g id="ellmlb81nt2hg"><path opacity=".5" style="transform-origin:408.905px 66.5913px" fill="#fff" d="m419.89 64-10.77 6.17-10.83-1a.76.76.0 0 0-.37.06c.87-.51 10.31-5.91 10.7-6.12a.68.68.0 0 1 .45-.09z" class="animable"/></g><path id="elqxqopj67f2" style="transform-origin:430.02px 84.65px" d="M453.36 66.16 414.42 43.67 406.68 48.17 409.53 105.95 426.15 125.63 442.77 125.14 450.51 120.64z" fill="#6892c8" class="animable"/><g id="elcuxylfgxu3"><path opacity=".5" style="transform-origin:430.02px 57.165px" d="M453.36 66.16 445.63 70.66 406.68 48.17 414.42 43.67z" class="animable" fill="#fff"/></g><g id="elahwjq9a6pfb"><path opacity=".15" style="transform-origin:448.065px 95.65px" d="M453.36 66.16 445.63 70.66 442.77 125.14 450.51 120.64z" class="animable"/></g><path id="elxp491q5s8r" class="animable" style="transform-origin:421.534px 86.925px" fill="#6892c8" d="m406.68 48.17 1.08 21.88-9.46-.83a.8.8.0 0 0-.66 1.33l10.72 11.61 1.17 23.84 16.62 19.68 16.62-.49 2.86-54.48z"/><g id="elfkwi1ona72d"><path opacity=".5" style="transform-origin:433.89px 92.415px" d="M426.15 65.05 441.63 73.98 439.35 118.8 426.15 119.78z" class="animable" fill="#fff"/></g><path id="el141p1jtg7vkq" style="transform-origin:426.155px 88.095px" d="M437.95 76.26 436.32 112.97 426.15 113.55 415.99 101.23 415.47 90.86 419.15 92.98 419.45 99.17 426.15 107.56 432.85 106.9 433.99 79.61 414.65 68.44 414.36 62.64z" fill="#fff" class="animable"/></g><g id="CSS--inject-102" style="transform-origin:425.398px 176.91px" class="animable"><path id="ellxi387dghl" class="animable" style="transform-origin:408.905px 158.848px" fill="#6892c8" d="m419.89 156.26-10.77 6.17-10.83-1a.9.9.0 0 0-.37.05c.87-.51 10.31-5.91 10.7-6.12a.75.75.0 0 1 .45-.09z"/><path id="el83ya319cka6" style="transform-origin:430.02px 176.91px" d="M453.36 158.42 414.42 135.93 406.68 140.43 409.53 198.21 426.15 217.89 442.77 217.4 450.51 212.9z" fill="#6892c8" class="animable"/><g id="elbk3671jdaqu"><path opacity=".35" style="transform-origin:448.065px 187.91px" d="M453.36 158.42 445.63 162.91 442.77 217.4 450.51 212.9z" class="animable"/></g><path id="ela3p19b1r4xi" class="animable" style="transform-origin:421.533px 179.16px" fill="#6892c8" d="m406.68 140.43 1.08 21.87-9.46-.82a.8.8.0 0 0-.66 1.33l10.72 11.61 1.17 23.79 16.62 19.68 16.62-.49 2.86-54.49z"/><g id="elcapvdwuhx38"><path opacity=".25" style="transform-origin:421.533px 179.16px" d="m406.68 140.43 1.08 21.87-9.46-.82a.8.8.0 0 0-.66 1.33l10.72 11.61 1.17 23.79 16.62 19.68 16.62-.49 2.86-54.49z" class="animable"/></g><g id="elreq132owqxs"><path opacity=".7" style="transform-origin:433.89px 184.67px" d="M426.15 157.3 441.63 166.24 439.35 211.05 426.15 212.04z" class="animable" fill="#6892c8"/></g><path id="elnrt60c6c82g" style="transform-origin:426.155px 180.355px" d="M414.36 154.9 414.6 160.67 433.99 171.86 433.52 183.24 415.11 172.61 415.35 178.38 433.29 188.74 432.85 199.16 426.15 199.82 419.45 191.42 419.15 185.24 415.47 183.12 415.99 193.49 426.15 205.81 436.32 205.23 437.95 168.51z" fill="#fff" class="animable"/></g><g id="HTML--inject-102" style="transform-origin:425.399px 269.155px" class="animable"><path id="elzso0zy2jov" style="transform-origin:430.02px 269.155px" d="M453.36 250.66 414.42 228.18 406.68 232.67 409.53 290.45 426.15 310.13 442.77 309.64 450.51 305.14z" fill="#6892c8" class="animable"/><g id="elimdjo90cptk"><path opacity=".25" style="transform-origin:430.02px 241.67px" d="M453.36 250.66 445.63 255.16 406.68 232.67 414.42 228.18z" class="animable"/></g><g id="el7mwq3ohq02n"><path opacity=".55" style="transform-origin:448.065px 280.15px" d="M453.36 250.66 445.63 255.16 442.77 309.64 450.51 305.14z" class="animable"/></g><path id="elo5k2vl9tcr8" class="animable" style="transform-origin:408.905px 251.114px" fill="#6892c8" d="m419.89 248.5-10.77 6.17-10.83-.95a.76.76.0 0 0-.37.06c.87-.51 10.31-5.92 10.7-6.13a.83.83.0 0 1 .45-.09z"/><g id="elm2auur5bbel"><path opacity=".25" style="transform-origin:408.905px 251.114px" d="m419.89 248.5-10.77 6.17-10.83-.95a.76.76.0 0 0-.37.06c.87-.51 10.31-5.92 10.7-6.13a.83.83.0 0 1 .45-.09z" class="animable"/></g><path id="elvu4u3qepa6" class="animable" style="transform-origin:421.534px 271.4px" fill="#6892c8" d="m406.68 232.67 1.08 21.88-9.46-.83a.8.8.0 0 0-.66 1.33l10.72 11.61 1.17 23.79 16.62 19.68 16.62-.49 2.86-54.48z"/><g id="elpyboolupc99"><path opacity=".4" style="transform-origin:421.534px 271.4px" d="m406.68 232.67 1.08 21.88-9.46-.83a.8.8.0 0 0-.66 1.33l10.72 11.61 1.17 23.79 16.62 19.68 16.62-.49 2.86-54.48z" class="animable"/></g><g id="eln2caqe2u42s"><path opacity=".5" style="transform-origin:433.89px 276.915px" d="M426.15 249.55 441.63 258.48 439.35 303.3 426.15 304.28z" class="animable" fill="#6892c8"/></g><path id="elczt69g3d1li" style="transform-origin:426.155px 272.595px" d="M437.95 260.76 414.36 247.14 415.35 270.63 433.29 280.98 432.85 291.41 426.15 292.06 419.45 283.67 419.15 277.48 415.47 275.36 415.99 285.74 426.15 298.05 436.32 297.47 437.19 277.6 418.79 266.98 418.31 255.06 437.66 266.23z" fill="#fff" class="animable"/></g></g><g id="Character--inject-102" style="transform-origin:295.598px 338.078px" class="animable"><g id="character--inject-102" style="transform-origin:295.598px 338.078px" class="animable"><path id="elzrb2wdavcp" class="animable" style="transform-origin:296.98px 396.369px" fill="#37474f" d="m250.31 367.18c-2.8 8.36-5.2 19.16-9 35.43-3.55 15.24-3.57 26 1.36 29.7s19.06 1.44 28-17.6c2.8-6 13.33-24.35 13.33-24.35s7.8-2.81 10.49-4.92 26 .76 38.64-1.83 26.08-18 20.9-19.54c-9.3-2.74-34.08-3.78-55.07-5.13z"/><path id="ellcahh3xcnxm" class="animable" style="transform-origin:305.59px 383.46px" fill="#263238" d="m320.75 380.35c-5.69 1.32-14.12-.44-18.87-1.82a12.52 12.52.0 0 0-.16-5 16.43 16.43.0 0 1-2.11 6.32c-.78.44-1.44.81-1.92 1.06-3.16 1.61-11.84 6.05-13.45 4.65a16.94 16.94.0 0 0-9.73-6.17c2.72 1.83 10.6 7.48 7.8 14l1.71-3s7.8-2.81 10.49-4.92 14.55.42 27.16-.44l15-10.37s-7.2-.45-15.92 5.69z"/><path id="eliqyu05megka" class="animable" style="transform-origin:292.843px 417.034px" fill="#f28f8f" d="m306.17 398.09a16.42 16.42.0 0 1-6.76 4 5.88 5.88.0 0 1-2.54.0c-2.92-.61-7.6-.6-9.24 5.23-1.85 6.61-9.24 9.75-11.21 14.28-1 2.26-1.5 8.81-.54 12.84.8 3.3 7.19.85 9.56-3.18s7.45-9.34 10.8-12.4c5.45-3.07 11.5-7.57 14.08-9.38z"/><path id="elcg3s9kl04eb" class="animable" style="transform-origin:329.616px 387.835px" fill="#263238" d="m344.61 361.82c16.77 1.12 17.34 10 13.15 16.76-4.51 7.25-21 17-30 22.16-8.21 4.73-22.22 13.11-22.22 13.11s-7.09-5.54-6.17-11.77c9.28-6.47 21.78-24.89 37.25-27.45z"/><path id="el7gn19dezqfe" class="animable" style="transform-origin:282.935px 418.285px" fill="#263238" d="m278.41 436.47a3.83 3.83.0 0 1-2.75-.64c-.75-.53-2.41-5.2-1-10.86a24.15 24.15.0 0 1 6.2-11.14c1.83-1.94 2.49-4.17 3.15-7s2.72-6.3 4.15-6.69 3.6.72 3.6.72z"/><path id="elahj52uqpqxh" class="animable" style="transform-origin:288.414px 418.731px" fill="#6892c8" d="m300.52 416.47c-.35 1.8-1.83 2.26-3.42 2.89-2.17.86-4.23 3.1-6.19 5.6-1.33 1.7-2.43 3.4-3.64 5.18s-2.23 4.35-3.53 5.71c-1.91 2-5.77 1.62-6.83-1.21-.92-2.44-1.31-8.5 1.47-14.3 1.52-3.17 5.72-6.24 6.82-10.55.73-2.88 1.74-6.31 3.86-8.5 1.26-1.3 2.41-1 4-.54a51.32 51.32.0 0 0 6.36 1.33 9.66 9.66.0 0 1-1.55 5 4.17 4.17.0 0 0-.8 1.62 3.36 3.36.0 0 0 .11 1.22c.12.56.32 1.21.87 1.37a5.34 5.34.0 0 0 .69.05c.86.11 1.28 1.1 1.5 1.94a8 8 0 0 1 .35 2.79 3.58 3.58.0 0 1-.07.4z"/><g id="elso9g10h8bu"><path opacity=".4" style="transform-origin:288.414px 418.731px" d="m300.52 416.47c-.35 1.8-1.83 2.26-3.42 2.89-2.17.86-4.23 3.1-6.19 5.6-1.33 1.7-2.43 3.4-3.64 5.18s-2.23 4.35-3.53 5.71c-1.91 2-5.77 1.62-6.83-1.21-.92-2.44-1.31-8.5 1.47-14.3 1.52-3.17 5.72-6.24 6.82-10.55.73-2.88 1.74-6.31 3.86-8.5 1.26-1.3 2.41-1 4-.54a51.32 51.32.0 0 0 6.36 1.33 9.66 9.66.0 0 1-1.55 5 4.17 4.17.0 0 0-.8 1.62 3.36 3.36.0 0 0 .11 1.22c.12.56.32 1.21.87 1.37a5.34 5.34.0 0 0 .69.05c.86.11 1.28 1.1 1.5 1.94a8 8 0 0 1 .35 2.79 3.58 3.58.0 0 1-.07.4z" class="animable"/></g><path id="eljyorc3k6y1" class="animable" style="transform-origin:293.2px 418.835px" fill="#f5f5f5" d="m292.87 422.63a2.61 2.61.0 0 0 1.73-1.81c.45-1.22-.09-3.62-1-5.2a1 1 0 0 0-1.73-.15 1.06 1.06.0 0 0-.08 1.21 8 8 0 0 1 1.08 5.95z"/><path id="elx0og27189i8" class="animable" style="transform-origin:290.222px 421.945px" fill="#f5f5f5" d="m290 426.16a3 3 0 0 0 1.67-2.21 9.34 9.34.0 0 0-1.07-5.68 1 1 0 0 0-1.68-.15 1 1 0 0 0-.07 1.16 8 8 0 0 1 1.15 6.88z"/><path id="el2li0nmx7qmy" class="animable" style="transform-origin:287.35px 425.975px" fill="#f5f5f5" d="m287.27 430.14a3.38 3.38.0 0 0 1.57-2.32 9 9 0 0 0-1.13-5.47 1 1 0 0 0-1.68-.15 1 1 0 0 0-.07 1.17 7.63 7.63.0 0 1 1.31 6.77z"/><path id="elrldvnj119xq" class="animable" style="transform-origin:321.966px 402.562px" fill="#ffa8a7" d="m299.48 400.57c3-.75 7.34-1.81 9.14-4.19s5.55-4.68 10.61-1.35c3.2 2.11 7 2.8 10.8 3.05a35.52 35.52.0 0 1 5.06.24 18.65 18.65.0 0 1 5.6 2.59 9.25 9.25.0 0 1 2.79 2.41 5.72 5.72.0 0 1 .09 6.24 3.12 3.12.0 0 1-.79.87 3.29 3.29.0 0 1-1.32.55c-1.75.39-3.21-.16-4.86-.62-1.37-.38-2.77-.67-4.16-.92a70.11 70.11.0 0 0-9.58-1.12c-1.37-.05-4.22-.27-5.59-.17-5.72.39-13.81 3.61-13.81 3.61z"/><path id="ely2o5orra6lo" class="animable" style="transform-origin:274.17px 417.447px" fill="#37474f" d="m240 428c.94 5.78 7.43 8.57 21.34 5.79s47-23.63 47-23.63-1.29-8-8.9-10.14-6.92 1.26-18.22 3.72a146 146 0 0 0-15.07 4.17c-7.64 10.25-15.58 6.11-18.44 9.71-4.71 5.99-7.71 10.38-7.71 10.38z"/><path id="elzed3c1cchm" class="animable" style="transform-origin:329.083px 399.343px" fill="#263238" d="m345 409.88a3.84 3.84.0 0 0 1.65-2.3c.21-.89-1.61-5.49-6.39-8.85a24.2 24.2.0 0 0-12-4.29c-2.65-.25-4.62-1.49-7-3.17s-6.19-2.94-7.53-2.29-2.23 2.91-2.23 2.91z"/><path id="el5hwaiaqhxtd" class="animable" style="transform-origin:325.879px 401.704px" fill="#6892c8" d="m315.21 409.4c1.45 1.12 2.87.49 4.48-.08 2.2-.78 5.23-.46 8.35.13 2.12.4 4.07 1 6.15 1.5s4.54 1.8 6.42 2c2.74.23 5.4-2.59 4.34-5.41-.92-2.44-4.62-7.26-10.54-9.79-3.22-1.38-8.4-.93-12.07-3.44-2.45-1.68-5.47-3.61-8.51-3.85-1.8-.15-2.46.85-3.36 2.22a51.83 51.83.0 0 1-3.9 5.2 9.74 9.74.0 0 0 4.48 2.76 4.4 4.4.0 0 1 1.67.68 3.59 3.59.0 0 1 .72 1c.28.49.55 1.12.24 1.6a5.55 5.55.0 0 1-.48.49c-.57.66-.23 1.67.15 2.45a8.13 8.13.0 0 0 1.58 2.33 3 3 0 0 0 .28.21z"/><g id="elyhnas7q660r"><path opacity=".4" style="transform-origin:325.879px 401.704px" d="m315.21 409.4c1.45 1.12 2.87.49 4.48-.08 2.2-.78 5.23-.46 8.35.13 2.12.4 4.07 1 6.15 1.5s4.54 1.8 6.42 2c2.74.23 5.4-2.59 4.34-5.41-.92-2.44-4.62-7.26-10.54-9.79-3.22-1.38-8.4-.93-12.07-3.44-2.45-1.68-5.47-3.61-8.51-3.85-1.8-.15-2.46.85-3.36 2.22a51.83 51.83.0 0 1-3.9 5.2 9.74 9.74.0 0 0 4.48 2.76 4.4 4.4.0 0 1 1.67.68 3.59 3.59.0 0 1 .72 1c.28.49.55 1.12.24 1.6a5.55 5.55.0 0 1-.48.49c-.57.66-.23 1.67.15 2.45a8.13 8.13.0 0 0 1.58 2.33 3 3 0 0 0 .28.21z" class="animable"/></g><path id="elt98iqx6p29" class="animable" style="transform-origin:322.395px 406.074px" fill="#f5f5f5" d="m325 409a2.6 2.6.0 0 1-2.49-.22c-1.15-.62-2.32-2.78-2.68-4.57a1 1 0 0 1 1.21-1.25 1.05 1.05.0 0 1 .85.85A8 8 0 0 0 325 409z"/><path id="ela6ytahqokv" class="animable" style="transform-origin:326.68px 406.43px" fill="#f5f5f5" d="m329.52 409.76a3 3 0 0 1-2.72-.57 9.35 9.35.0 0 1-2.94-5 1 1 0 0 1 1.14-1.19 1 1 0 0 1 .81.83 8.07 8.07.0 0 0 3.71 5.93z"/><path id="eli297wzw5l" class="animable" style="transform-origin:331.446px 407.621px" fill="#f5f5f5" d="m334.19 411a3.38 3.38.0 0 1-2.71-.71 9 9 0 0 1-2.75-4.86 1 1 0 0 1 1.16-1.22 1 1 0 0 1 .82.83 7.67 7.67.0 0 0 3.48 5.96z"/><path id="el0mihguz6tnps" class="animable" style="transform-origin:268.58px 406.575px" fill="#263238" d="m275.79 405s-9.34 1.83-16.27 6.49 7.12-8.34 18.12-9.83z"/><path id="elzysnxqiqnil" class="animable" style="transform-origin:303.415px 322.31px" fill="#ffa8a7" d="m310.77 333.78-11.64-32.88-3.07 1.1 1.84 36.32 2 5.4c5.21-2.72 9.46-4.72 10.87-9.94z"/><path id="elpnqib8w489k" class="animable" style="transform-origin:297.195px 315.824px" fill="#6892c8" d="m283.39 292.26c7.21.08 13.79 2.7 16.52 8.35s11.09 31.32 11.09 31.32-6.86 8.07-17 7.42z"/><g id="eldd4spc9r1i5"><path opacity=".1" style="transform-origin:297.195px 315.824px" d="m283.39 292.26c7.21.08 13.79 2.7 16.52 8.35s11.09 31.32 11.09 31.32-6.86 8.07-17 7.42z" class="animable"/></g><path id="el4e1alj2um9p" class="animable" style="transform-origin:274.452px 332.156px" fill="#fafafa" d="m268.6 292.7c-10.11 1.87-16.85 4-18.76 5.89-4.3 8.81 1.29 38.34 1.29 38.34l1 14.05-1.78 16.2c10.93 9.24 44.38 4.7 50.34-8.24.0.0-1.67-42.12-1.67-49.59s-4.14-16.42-15.59-17.09z"/><path id="elk9tbr4bfhv" class="animable" style="transform-origin:271.53px 340.077px" fill="#ebebeb" d="m261.24 360.83c-2.93-4.49-2.81-15.91-2.81-15.91s5.12-29.8 3.94-36.9L248.86 321c.86 8.53 2.27 16 2.27 16l1 14.05-1.78 16.2c8.74 7.39 31.88 6 43.85-1.53-17.57 6.97-30.04-.4-32.96-4.89z"/><path id="elco3jgi0a6ca" class="animable" style="transform-origin:265.73px 276.815px" fill="#263238" d="m263 269s1.52 11.21 2.33 13.09a5 5 0 0 0 2.71 2.54l.42-7.77z"/><path id="elub0l6xvy568" class="animable" style="transform-origin:264.323px 261.529px" fill="#263238" d="m267.15 253.37a5.43 5.43.0 0 0-4.62 1.24c-2.08 1.83-1.46 8.1.49 14.34l4.39.84z"/><path id="elt2pbg59ekl" class="animable" style="transform-origin:279.468px 274.268px" fill="#ffa8a7" d="m268.73 269.89c-.92.46-2.06-1.33-3.07-2.56s-4.46-3.06-6.52.56.9 9 3.65 10.09c4.73 1.88 5.69-1.17 5.69-1.17l-1 17.84c4.39 9.56 21.91 6.15 15.93-.42l.32-4.53a51.5 51.5.0 0 0 7.31.55c3.61-.29 5.25-2.64 6.62-6.42 2.2-6.06 3.24-11 2.67-23.31-.61-13.47-16.13-14.77-24.91-10.12s-6.69 19.49-6.69 19.49z"/><path id="elzopjh3emp1" class="animable" style="transform-origin:284.737px 255.345px" fill="#263238" d="m268.42 246.12a43.08 43.08.0 0 1 9.37-2.07c6.88-1 13.88-1.8 20.3-4.47a4.3 4.3.0 0 1 2.48-.51c1.62.33 2.18 2.36 2.12 4a13.46 13.46.0 0 1-.92 4.47 2.59 2.59.0 0 1 3.64.33 4.5 4.5.0 0 1 .77 3.88 9.53 9.53.0 0 1-6 6.49 21.49 21.49.0 0 1-9.06 1.11 61.69 61.69.0 0 1-12.68-1.92 9 9 0 0 0-3.07-.45 2.78 2.78.0 0 0-2.45 1.66c-.57 1.65-1.9 13.08-4.26 13-.44.0-1.89-3-2.91-4.14-1.27-1.4-1.91-11.33-2-13.16a1 1 0 0 0-.16-.4c-1.38-2.28.7-5.78 2.69-6.82a21.52 21.52.0 0 1 2.14-1z"/><path id="elvzkv9cfgyd" class="animable" style="transform-origin:261.656px 252.321px" fill="#263238" d="m264.43 254.12a3.24 3.24.0 0 1-4.61-4.56z"/><path id="el9g7brao3hs" class="animable" style="transform-origin:276.66px 287.655px" fill="#f28f8f" d="m283.72 289.7s-7.89-1.36-10.56-3a9.21 9.21.0 0 1-3.56-4.09 12.46 12.46.0 0 0 1.85 4.65c1.84 2.75 12.05 5.44 12.05 5.44z"/><path id="ell6hzerghtto" class="animable" style="transform-origin:282.929px 268.816px" fill="#263238" d="m284.52 269a1.6 1.6.0 1 1-1.47-1.78 1.63 1.63.0 0 1 1.47 1.78z"/><path id="el1974u91r7vo" class="animable" style="transform-origin:281.422px 263.057px" fill="#263238" d="m283.28 262.84-3.55 1.63a2.05 2.05.0 0 1 1-2.66 1.91 1.91.0 0 1 2.55 1.03z"/><path id="el4u98nv3w2mw" class="animable" style="transform-origin:285.4px 281.487px" fill="#f28f8f" d="m283.72 280.08 3.54 1.64a1.92 1.92.0 0 1-2.57 1 2 2 0 0 1-.97-2.64z"/><path id="elhoudcze29ow" class="animable" style="transform-origin:297.41px 263.695px" fill="#263238" d="m298.64 265.36-2.93-2.63a1.88 1.88.0 0 1 2.73-.21 2.07 2.07.0 0 1 .2 2.84z"/><path id="elq0fgdwbrhu" class="animable" style="transform-origin:295.779px 269.336px" fill="#263238" d="m297.37 269.52a1.6 1.6.0 1 1-1.47-1.78 1.64 1.64.0 0 1 1.47 1.78z"/><path id="elj1niw2m46p" style="transform-origin:291.61px 272.69px" d="M289.24 267.88 289.04 277.5 294.18 276.17z" fill="#f28f8f" class="animable"/><path id="el5ympqz4ghst" class="animable" style="transform-origin:245.365px 331.635px" fill="#ffa8a7" d="m238.16 365.91c-6.48-6.52-7.52-8.65-6.64-12.72 1.74-8 8.85-33.61 11.55-41.22 3.39-9.56 4.9-13.38 10.54-14.61 4.55 3.6 9 17.08 2.88 29.22l-7.38 26.5"/><path id="elq3uumqswb0k" class="animable" style="transform-origin:248.393px 321.075px" fill="#6892c8" d="m258.45 295c-8.71 1-12.4 4.52-15.54 13.93S234.25 340 234.25 340s7.31 7.92 17.56 7.09l8.54-28.3s6.01-20.58-1.9-23.79z"/><g id="el34w0in3hkb9"><path opacity=".1" style="transform-origin:248.393px 321.075px" d="m258.45 295c-8.71 1-12.4 4.52-15.54 13.93S234.25 340 234.25 340s7.31 7.92 17.56 7.09l8.54-28.3s6.01-20.58-1.9-23.79z" class="animable"/></g><path id="elt26q47mkg" class="animable" style="transform-origin:297.915px 395.81px" fill="#ebebeb" d="m256.43 392.48v1a2.89 2.89.0 0 0 1.43 2.48l27.26 15.68a2.86 2.86.0 0 0 2.85.0l50-28.87a2.84 2.84.0 0 0 1.43-2.47v-.7l-52.85 30.52z"/><path id="el0tfrlpoejnvo" class="animable" style="transform-origin:297.914px 386.199px" fill="#fafafa" d="m339.4 379.61-29.64-17.11a1.69 1.69.0 0 0-1.71.0l-51.43 29.69a.38.38.0 0 0 0 .66l29.93 17.28z"/><path id="el5mziw0grj8b" class="animable" style="transform-origin:313.306px 351.943px" fill="#ffa8a7" d="m326.22 362.27c-4.07-7.22-15.45-28.49-15.45-28.49l-10.86 10c4.43 8.38 16.46 25.24 16.46 25.24 5.53 3.61 12.19-2.59 9.85-6.75z"/><path id="elgfg7lxpbhya" style="transform-origin:301.695px 389.505px" d="M286.27 407.61 270.28 398.39 317.04 371.4 333.11 380.57z" fill="#e0e0e0" class="animable"/><path id="eltyrf5wxx8y" style="transform-origin:289.595px 380.2px" d="M278.42 381.96 278.71 382.13 286.55 386.65 300.49 378.61 300.77 378.44 292.64 373.75z" fill="#e0e0e0" class="animable"/><path id="elrqyeoi1gf4" style="transform-origin:289.6px 380.365px" d="M278.71 382.13 286.55 386.65 300.49 378.61 292.64 374.08z" fill="#e6e6e6" class="animable"/><path id="eljf2jz0ajb0e" class="animable" style="transform-origin:312.975px 395.79px" fill="#ebebeb" d="m286.55 410.13V412a2.78 2.78.0 0 0 1.42-.38l50-28.87a2.84 2.84.0 0 0 1.43-2.47v-.7z"/><path id="elq26o5x0v2kq" class="animable" style="transform-origin:312.975px 395.79px" fill="#e0e0e0" d="m286.55 410.13V412a2.78 2.78.0 0 0 1.42-.38l50-28.87a2.84 2.84.0 0 0 1.43-2.47v-.7z"/><path id="el9jwlzgipdqi" class="animable" style="transform-origin:317.256px 377.272px" fill="#6892c8" d="m287.35 410.55a3.37 3.37.0 0 0 2.92-.22l49.78-28.75a3.37 3.37.0 0 0 1.65-2.36l5.45-32.5a3.52 3.52.0 0 0 0-.56 3.37 3.37.0 0 0-1-2.4l-51.73 29.87a2.5 2.5.0 0 0-1.22 1.75z"/><g id="el85ewueg7648"><g opacity=".7" style="transform-origin:317.256px 377.272px" class="animable"><path id="eli1xetazware" class="animable" style="transform-origin:317.256px 377.272px" fill="#fff" d="m287.35 410.55a3.37 3.37.0 0 0 2.92-.22l49.78-28.75a3.37 3.37.0 0 0 1.65-2.36l5.45-32.5a3.52 3.52.0 0 0 0-.56 3.37 3.37.0 0 0-1-2.4l-51.73 29.87a2.5 2.5.0 0 0-1.22 1.75z"/></g></g><path id="el5pn8b6x0ry4" class="animable" style="transform-origin:316.37px 376.89px" fill="#fafafa" d="m286.55 410.13.34.2a3.88 3.88.0 0 0 .46.22l5.89-35.17a2.5 2.5.0 0 1 1.22-1.75l51.73-29.87a3.32 3.32.0 0 0-.69-.53l-51.84 29.93a2.48 2.48.0 0 0-1.21 1.75z"/><path id="el9nlxaltyr4d" class="animable" style="transform-origin:319.733px 378.031px" fill="#6892c8" d="m315.39 380.55c.36-2.18 2.61-5.07 5-6.46s4.06-.75 3.69 1.43-2.61 5.06-5 6.45-4.08.76-3.69-1.42z"/><path id="eltzfe6a80gx" class="animable" style="transform-origin:262.703px 374.79px" fill="#ffa8a7" d="m249.11 353.08s3.74 6.21 8.06 12 9 11.89 12.5 12.92c3.29 1 7.15 2.13 8.27 3.16a86.23 86.23.0 0 1 7.5 8.7c1 1.71 3.51 5.19.0 6.3-3.21 1-5.83-.36-8.43-2.15a33.78 33.78.0 0 1-3.49-2.87 12.75 12.75.0 0 1-7.53-1.5c-2-1.12-5.3-3.08-5.3-3.08-2.74-1.88-16.35-14.48-22.53-20.68"/></g></g></svg>